<?xml version="1.0" encoding="utf-8"?>
<!-- Generator: Adobe Illustrator 15.1.0, SVG Export Plug-In . SVG Version: 6.00 Build 0)  -->
<!DOCTYPE svg PUBLIC "-//W3C//DTD SVG 1.1//EN" "http://www.w3.org/Graphics/SVG/1.1/DTD/svg11.dtd">
<svg version="1.1" id="Layer_1" xmlns="http://www.w3.org/2000/svg" xmlns:xlink="http://www.w3.org/1999/xlink" x="0px" y="0px"
	 width="193px" height="91px" viewBox="0 0 193 91" enable-background="new 0 0 193 91" xml:space="preserve">
<g>
	<path fill-rule="evenodd" clip-rule="evenodd" d="M37.102,35.92c2.527-9.305,4.965-19.294,11.802-26.489
		c4.162-4.371,10.048-7.076,16.143-7.076c6.6,0,11.238,5.113,11.238,11.535c0,13.527-12.962,23.635-25.3,25.895l-0.713,2.676
		l-1.813,6.897c-1.665,6.361-3.835,12.428-7.641,17.838c6.213,1.693,12.278,3.746,18.581,5.113
		c18.165,3.924,36.805,5.678,55.356,5.678c15.549,0,31.097-0.506,46.556-2.438c9.692-1.189,19.324-2.646,28.719-5.352l0.892,3.688
		c-12.219,3.982-24.646,6.838-37.34,8.77c-15.607,2.379-31.483,3.746-47.27,3.746c-23.753,0-47.745-5.025-69.774-13.885
		c-4.341,4.312-11.119,7.018-17.213,7.018c-5.262,0-15.489-2.914-15.489-9.691c0-5.619,7.581-7.879,12.041-7.879
		c4.4,0,8.859,0.922,13.141,1.873c4.073-7.135,5.589-15.639,7.224-23.605c-3.657-0.297-7.105-1.041-10.583-2.289l1.397-3.776
		C30.354,35.325,33.594,35.831,37.102,35.92L37.102,35.92z"/>
	<path fill-rule="evenodd" clip-rule="evenodd" d="M67.753,55.809c0,0.238,0,0.506,0,0.744c0,4.131,3.002,5.352,6.778,5.352
		c6.451,0,12.694-2.617,18.373-5.531l4.459-17.659h13.2l-4.548,18.223c-0.148,0.506-0.208,1.041-0.208,1.547
		c0,1.516,0.743,2.26,2.259,2.26c3.003,0,6.095-1.814,8.354-3.656c-0.03-0.477-0.06-0.953-0.06-1.398
		c0-10.643,10.435-17.659,20.275-17.659c2.526,0,5.232,0.684,7.313,2.17l-1.457,5.471c-1.309-1.576-2.884-2.795-5.024-2.795
		c-5.678,0-8.057,8.86-8.057,13.348c0,3.004,2.052,4.816,4.995,4.816c4.281,0,7.61-2.854,10.702-5.471
		c0.148-3.27,0.922-6.123,2.765-8.889c3.598-5.321,9.395-8.77,15.846-8.77c3.301,0,6.154,1.07,8.324,3.538l0.625-2.735h12.219
		l-4.728,18.374c-0.148,0.504-0.297,1.039-0.297,1.545c0,1.547,1.486,2.23,2.854,2.23c1.694,0,3.211-0.893,4.608-1.754l0.981,3.805
		l-7.225,3.508c-1.813,0.893-3.925,1.367-5.946,1.367c-3.448,0-6.035-2.051-7.313-5.113c-2.913,3.539-5.976,5.293-10.643,5.293
		c-4.995,0-9.038-2.795-11.029-7.254c-4.163,4.012-9.9,7.402-15.846,7.402c-5.024,0-10.049-1.934-12.576-6.482
		c-4.607,3.391-10.494,6.393-16.351,6.393c-4.192,0-7.373-2.705-8.622-6.57c-6.629,3.717-13.526,6.48-21.256,6.48
		c-7.908,0-17.243-3.895-17.243-13.109c0-10.346,12.249-17.065,21.435-17.065c4.727,0,12.694,1.754,12.694,7.819
		c0,7.283-10.554,10.703-16.381,10.703C70.547,56.285,69.15,56.105,67.753,55.809L67.753,55.809z"/>
	<path fill-rule="evenodd" clip-rule="evenodd" d="M99.682,28.161c0-4.043,4.489-5.44,7.849-5.44c3.003,0,6.749,1.545,6.749,5.024
		c0,4.132-4.43,5.53-7.879,5.53C103.309,33.274,99.682,31.758,99.682,28.161L99.682,28.161z"/>
	<path fill-rule="evenodd" clip-rule="evenodd" fill="#FFFFFF" d="M52.085,34.999c8.859-1.606,18.819-11.179,18.819-20.543
		c0-2.884-1.1-6.6-4.579-6.6c-4.132,0-7.135,4.191-8.562,7.611C55.147,21.709,53.78,28.458,52.085,34.999L52.085,34.999z"/>
	<path fill-rule="evenodd" clip-rule="evenodd" fill="#FFFFFF" d="M25.181,69.188c-3.122-1.189-6.333-2.053-9.722-2.053
		c-1.873,0-5.946,0.477-5.946,3.152c0,2.705,4.162,3.537,6.154,3.537C19.413,73.824,22.713,71.863,25.181,69.188L25.181,69.188z"/>
	<path fill-rule="evenodd" clip-rule="evenodd" fill="#FFFFFF" d="M68.347,52.004c0.684,0.119,1.368,0.236,2.052,0.236
		c4.281,0,9.364-2.229,9.364-7.164c0-1.843-1.308-3.181-3.122-3.181C71.588,41.896,69.417,47.99,68.347,52.004L68.347,52.004z"/>
	<path fill-rule="evenodd" clip-rule="evenodd" fill="#FFFFFF" d="M168.119,55.928l1.813-7.076c0.178-0.654,0.386-1.309,0.386-2.021
		c0-2.348-2.378-3.954-4.548-3.954c-2.527,0-4.073,2.051-5.055,4.163c-1.219,2.646-2.794,7.551-2.794,10.523
		c0,2.17,1.309,4.342,3.656,4.342C165.027,61.904,167.316,59.02,168.119,55.928L168.119,55.928z"/>
</g>
</svg>
